<svg width="1128" height="630" viewBox="0 0 1128 630" fill="none" xmlns="http://www.w3.org/2000/svg">
<rect width="1128" height="630" fill="white"/>
<path d="M325.794 356.75C315.794 356.75 306.711 354.75 298.544 350.75C290.544 346.583 284.127 340.333 279.294 332C274.627 323.667 272.294 313.25 272.294 300.75C272.294 288.75 274.711 278.417 279.544 269.75C284.544 260.917 291.044 254.167 299.044 249.5C307.211 244.667 316.044 242.25 325.544 242.25C335.877 242.25 344.044 244.25 350.044 248.25C356.044 252.083 360.877 256.5 364.544 261.5L363.044 265.75L365.794 247.25H393.794V354H363.544V329L366.294 335.75C365.794 336.417 364.544 337.917 362.544 340.25C360.711 342.417 358.044 344.833 354.544 347.5C351.211 350 347.127 352.167 342.294 354C337.627 355.833 332.127 356.75 325.794 356.75ZM334.294 332.25C339.127 332.25 343.461 331.417 347.294 329.75C351.127 328.083 354.377 325.75 357.044 322.75C359.877 319.583 362.044 315.833 363.544 311.5V287.5C362.211 283.167 360.044 279.5 357.044 276.5C354.211 273.5 350.711 271.167 346.544 269.5C342.544 267.667 338.044 266.75 333.044 266.75C327.711 266.75 322.711 268.167 318.044 271C313.377 273.667 309.627 277.5 306.794 282.5C304.127 287.333 302.794 292.917 302.794 299.25C302.794 305.417 304.211 311 307.044 316C309.877 321 313.711 325 318.544 328C323.377 330.833 328.627 332.25 334.294 332.25ZM458.435 247.25L461.185 277.25L460.185 272.75C463.185 266.417 467.351 261 472.685 256.5C478.018 252 483.435 248.5 488.935 246C494.435 243.5 498.851 242.25 502.185 242.25L500.685 272.25C492.685 271.417 485.685 272.833 479.685 276.5C473.851 280.167 469.268 285 465.935 291C462.768 296.833 461.185 302.917 461.185 309.25V354H431.435V247.25H458.435ZM540.556 200.25H570.806V247H598.056V270.5H570.806V354H540.556V270.5H522.806V247H540.556V200.25ZM625.526 247.25H655.526V354H625.526V247.25ZM624.276 209C624.276 204.5 626.026 200.75 629.526 197.75C633.193 194.75 637.11 193.25 641.276 193.25C645.443 193.25 649.193 194.75 652.526 197.75C656.026 200.75 657.776 204.5 657.776 209C657.776 213.667 656.026 217.5 652.526 220.5C649.193 223.333 645.443 224.75 641.276 224.75C637.11 224.75 633.193 223.333 629.526 220.5C626.026 217.5 624.276 213.667 624.276 209ZM726.392 356.25C718.058 356.25 710.142 354.833 702.642 352C695.308 349 689.142 344.75 684.142 339.25L696.892 322.25C701.725 326.917 706.392 330.333 710.892 332.5C715.558 334.5 719.892 335.5 723.892 335.5C726.892 335.5 729.642 335.167 732.142 334.5C734.642 333.667 736.642 332.5 738.142 331C739.642 329.5 740.392 327.5 740.392 325C740.392 321.667 739.225 319.083 736.892 317.25C734.558 315.417 731.558 313.917 727.892 312.75C724.392 311.583 720.642 310.417 716.642 309.25C707.308 306.25 700.392 301.917 695.892 296.25C691.392 290.583 689.142 284.167 689.142 277C689.142 271.5 690.558 266.167 693.392 261C696.225 255.667 700.642 251.333 706.642 248C712.642 244.5 720.308 242.75 729.642 242.75C737.975 242.75 745.142 243.667 751.142 245.5C757.308 247.333 763.058 250.25 768.392 254.25L756.642 272.25C753.642 269.583 750.142 267.417 746.142 265.75C742.142 264.083 738.475 263.167 735.142 263C732.142 262.833 729.475 263.25 727.142 264.25C724.808 265.083 722.975 266.25 721.642 267.75C720.308 269.25 719.642 271 719.642 273C719.475 276.333 720.642 279 723.142 281C725.642 282.833 728.808 284.333 732.642 285.5C736.642 286.5 740.558 287.667 744.392 289C749.558 290.667 754.058 292.833 757.892 295.5C761.892 298.167 764.975 301.417 767.142 305.25C769.475 309.083 770.642 313.75 770.642 319.25C770.642 325.75 768.975 331.833 765.642 337.5C762.475 343.167 757.642 347.75 751.142 351.25C744.642 354.583 736.392 356.25 726.392 356.25ZM792.313 299.25C792.313 288.583 794.813 278.917 799.813 270.25C804.98 261.583 812.147 254.75 821.313 249.75C830.48 244.75 840.98 242.25 852.813 242.25C864.813 242.25 875.23 244.75 884.063 249.75C892.897 254.75 899.73 261.583 904.563 270.25C909.397 278.917 911.813 288.583 911.813 299.25C911.813 310.083 909.397 319.917 904.563 328.75C899.73 337.417 892.897 344.25 884.063 349.25C875.23 354.25 864.647 356.75 852.313 356.75C840.813 356.75 830.48 354.5 821.313 350C812.313 345.333 805.23 338.75 800.063 330.25C794.897 321.583 792.313 311.25 792.313 299.25ZM822.563 299.5C822.563 305.667 823.813 311.25 826.313 316.25C828.98 321.083 832.48 325 836.813 328C841.313 330.833 846.397 332.25 852.063 332.25C857.897 332.25 862.98 330.833 867.313 328C871.813 325 875.313 321.083 877.813 316.25C880.313 311.25 881.563 305.667 881.563 299.5C881.563 293.333 880.313 287.833 877.813 283C875.313 278.167 871.813 274.333 867.313 271.5C862.98 268.5 857.897 267 852.063 267C846.397 267 841.313 268.5 836.813 271.5C832.48 274.333 828.98 278.25 826.313 283.25C823.813 288.083 822.563 293.5 822.563 299.5Z" fill="#00ACEE"/>
</svg>
